<mxfile host="app.diagrams.net" agent="Mozilla/5.0 (Windows NT 10.0; Win64; x64) AppleWebKit/537.36 (KHTML, like Gecko) Chrome/138.0.0.0 Safari/537.36" version="28.0.4">
  <diagram name="Sequence Diagram" id="Dwz1fxvn2qbR_SDhqMNQ">
    <mxGraphModel grid="1" page="1" gridSize="10" guides="1" tooltips="1" connect="1" arrows="1" fold="1" pageScale="1" pageWidth="827" pageHeight="1169" math="0" shadow="0">
      <root>
        <mxCell id="0" />
        <mxCell id="1" parent="0" />
        <mxCell id="sJ-FfOrLBQY5Moq6zbSi-58" value="Administrador" style="rounded=1;whiteSpace=wrap;html=1;align=center;verticalAlign=middle;" vertex="1" parent="1">
          <mxGeometry x="54" y="40" width="130" height="30" as="geometry" />
        </mxCell>
        <mxCell id="sJ-FfOrLBQY5Moq6zbSi-59" value="Sistema" style="rounded=1;whiteSpace=wrap;html=1;align=center;verticalAlign=middle;" vertex="1" parent="1">
          <mxGeometry x="354" y="40" width="120" height="30" as="geometry" />
        </mxCell>
        <mxCell id="sJ-FfOrLBQY5Moq6zbSi-60" value="Base de Datos" style="rounded=1;whiteSpace=wrap;html=1;align=center;verticalAlign=middle;" vertex="1" parent="1">
          <mxGeometry x="654" y="40" width="120" height="30" as="geometry" />
        </mxCell>
        <mxCell id="sJ-FfOrLBQY5Moq6zbSi-61" style="dashed=1;endArrow=none;" edge="1" parent="1" source="sJ-FfOrLBQY5Moq6zbSi-99">
          <mxGeometry relative="1" as="geometry">
            <mxPoint x="118" y="110" as="sourcePoint" />
            <mxPoint x="118" y="560" as="targetPoint" />
          </mxGeometry>
        </mxCell>
        <mxCell id="sJ-FfOrLBQY5Moq6zbSi-62" style="dashed=1;endArrow=none;" edge="1" parent="1" source="sJ-FfOrLBQY5Moq6zbSi-97">
          <mxGeometry relative="1" as="geometry">
            <mxPoint x="413" y="110" as="sourcePoint" />
            <mxPoint x="413" y="560" as="targetPoint" />
          </mxGeometry>
        </mxCell>
        <mxCell id="sJ-FfOrLBQY5Moq6zbSi-63" style="dashed=1;endArrow=none;exitX=0.25;exitY=1;exitDx=0;exitDy=0;" edge="1" parent="1" source="sJ-FfOrLBQY5Moq6zbSi-95">
          <mxGeometry relative="1" as="geometry">
            <mxPoint x="713" y="445" as="sourcePoint" />
            <mxPoint x="713" y="560" as="targetPoint" />
          </mxGeometry>
        </mxCell>
        <mxCell id="sJ-FfOrLBQY5Moq6zbSi-64" value="1. Pulsa apartado &quot;Recursos&quot;" style="endArrow=block;html=1;" edge="1" parent="1">
          <mxGeometry x="-0.0441" y="10" relative="1" as="geometry">
            <mxPoint x="119" y="100" as="sourcePoint" />
            <mxPoint x="414" y="100" as="targetPoint" />
            <mxPoint as="offset" />
          </mxGeometry>
        </mxCell>
        <mxCell id="sJ-FfOrLBQY5Moq6zbSi-66" value="2. Consultar recursos" style="endArrow=block;html=1;" edge="1" parent="1">
          <mxGeometry x="-0.0267" y="10" relative="1" as="geometry">
            <mxPoint x="414.5" y="155" as="sourcePoint" />
            <mxPoint x="714.5" y="155" as="targetPoint" />
            <mxPoint as="offset" />
          </mxGeometry>
        </mxCell>
        <mxCell id="sJ-FfOrLBQY5Moq6zbSi-67" value="3. Devolver listado de recursos" style="endArrow=block;html=1;" edge="1" parent="1">
          <mxGeometry x="0.0267" y="-10" relative="1" as="geometry">
            <mxPoint x="714.5" y="195" as="sourcePoint" />
            <mxPoint x="414.5" y="195" as="targetPoint" />
            <mxPoint as="offset" />
          </mxGeometry>
        </mxCell>
        <mxCell id="sJ-FfOrLBQY5Moq6zbSi-68" value="4. Mostrar listado de recursos" style="endArrow=block;html=1;" edge="1" parent="1">
          <mxGeometry x="-0.0237" y="-10" relative="1" as="geometry">
            <mxPoint x="414" y="260" as="sourcePoint" />
            <mxPoint x="119" y="260" as="targetPoint" />
            <mxPoint as="offset" />
          </mxGeometry>
        </mxCell>
        <mxCell id="sJ-FfOrLBQY5Moq6zbSi-69" value="5. Pulsa botón &quot;Eliminar&quot;&amp;nbsp;" style="endArrow=block;html=1;" edge="1" parent="1">
          <mxGeometry x="0.0237" y="10" relative="1" as="geometry">
            <mxPoint x="119" y="300" as="sourcePoint" />
            <mxPoint x="414" y="300" as="targetPoint" />
            <mxPoint as="offset" />
          </mxGeometry>
        </mxCell>
        <mxCell id="sJ-FfOrLBQY5Moq6zbSi-70" value="6. Pulsa botón &quot;Guardar&quot;" style="endArrow=block;html=1;" edge="1" parent="1">
          <mxGeometry x="0.0237" y="10" relative="1" as="geometry">
            <mxPoint x="119" y="340" as="sourcePoint" />
            <mxPoint x="414" y="340" as="targetPoint" />
            <mxPoint as="offset" />
          </mxGeometry>
        </mxCell>
        <mxCell id="sJ-FfOrLBQY5Moq6zbSi-71" value="8. Eliminar recurso" style="endArrow=block;html=1;" edge="1" parent="1">
          <mxGeometry x="-0.0267" y="10" relative="1" as="geometry">
            <mxPoint x="413" y="420" as="sourcePoint" />
            <mxPoint x="713" y="420" as="targetPoint" />
            <mxPoint as="offset" />
          </mxGeometry>
        </mxCell>
        <mxCell id="sJ-FfOrLBQY5Moq6zbSi-72" value="9. Confirmación de eliminación" style="endArrow=block;html=1;" edge="1" parent="1">
          <mxGeometry x="-0.04" y="-10" relative="1" as="geometry">
            <mxPoint x="713" y="460" as="sourcePoint" />
            <mxPoint x="413" y="460" as="targetPoint" />
            <mxPoint as="offset" />
          </mxGeometry>
        </mxCell>
        <mxCell id="sJ-FfOrLBQY5Moq6zbSi-73" value="10. Notificación de éxito: Recurso eliminado correctamente" style="endArrow=block;html=1;dashed=1;" edge="1" parent="1">
          <mxGeometry x="0.0373" y="-10" relative="1" as="geometry">
            <mxPoint x="413" y="500" as="sourcePoint" />
            <mxPoint x="118" y="500" as="targetPoint" />
            <mxPoint as="offset" />
          </mxGeometry>
        </mxCell>
        <mxCell id="sJ-FfOrLBQY5Moq6zbSi-74" value="Base de Datos" style="rounded=1;whiteSpace=wrap;html=1;align=center;verticalAlign=middle;" vertex="1" parent="1">
          <mxGeometry x="653" y="555" width="120" height="30" as="geometry" />
        </mxCell>
        <mxCell id="sJ-FfOrLBQY5Moq6zbSi-76" value="Sistema" style="rounded=1;whiteSpace=wrap;html=1;align=center;verticalAlign=middle;" vertex="1" parent="1">
          <mxGeometry x="353" y="555" width="120" height="30" as="geometry" />
        </mxCell>
        <mxCell id="sJ-FfOrLBQY5Moq6zbSi-77" value="Administrador" style="rounded=1;whiteSpace=wrap;html=1;align=center;verticalAlign=middle;" vertex="1" parent="1">
          <mxGeometry x="53" y="555" width="130" height="30" as="geometry" />
        </mxCell>
        <mxCell id="sJ-FfOrLBQY5Moq6zbSi-78" value="Sistema" style="rounded=1;whiteSpace=wrap;html=1;align=center;verticalAlign=middle;" vertex="1" parent="1">
          <mxGeometry x="354" y="40" width="120" height="30" as="geometry" />
        </mxCell>
        <mxCell id="sJ-FfOrLBQY5Moq6zbSi-79" value="Base de Datos" style="rounded=1;whiteSpace=wrap;html=1;align=center;verticalAlign=middle;" vertex="1" parent="1">
          <mxGeometry x="654" y="40" width="120" height="30" as="geometry" />
        </mxCell>
        <mxCell id="sJ-FfOrLBQY5Moq6zbSi-84" value="" style="dashed=1;endArrow=none;" edge="1" parent="1" target="sJ-FfOrLBQY5Moq6zbSi-83">
          <mxGeometry relative="1" as="geometry">
            <mxPoint x="414" y="70" as="sourcePoint" />
            <mxPoint x="414" y="520" as="targetPoint" />
          </mxGeometry>
        </mxCell>
        <mxCell id="sJ-FfOrLBQY5Moq6zbSi-83" value="" style="rounded=0;whiteSpace=wrap;html=1;" vertex="1" parent="1">
          <mxGeometry x="411.5" y="95" width="5" height="35" as="geometry" />
        </mxCell>
        <mxCell id="sJ-FfOrLBQY5Moq6zbSi-86" value="" style="dashed=1;endArrow=none;entryX=0.5;entryY=0;entryDx=0;entryDy=0;" edge="1" parent="1" target="sJ-FfOrLBQY5Moq6zbSi-91">
          <mxGeometry relative="1" as="geometry">
            <mxPoint x="119" y="70" as="sourcePoint" />
            <mxPoint x="119" y="125" as="targetPoint" />
          </mxGeometry>
        </mxCell>
        <mxCell id="sJ-FfOrLBQY5Moq6zbSi-88" value="" style="dashed=1;endArrow=none;" edge="1" parent="1" target="sJ-FfOrLBQY5Moq6zbSi-87">
          <mxGeometry relative="1" as="geometry">
            <mxPoint x="714" y="70" as="sourcePoint" />
            <mxPoint x="714" y="520" as="targetPoint" />
          </mxGeometry>
        </mxCell>
        <mxCell id="sJ-FfOrLBQY5Moq6zbSi-87" value="" style="rounded=0;whiteSpace=wrap;html=1;" vertex="1" parent="1">
          <mxGeometry x="712" y="150" width="5" height="35" as="geometry" />
        </mxCell>
        <mxCell id="sJ-FfOrLBQY5Moq6zbSi-90" value="" style="dashed=1;endArrow=none;" edge="1" parent="1" source="sJ-FfOrLBQY5Moq6zbSi-83" target="sJ-FfOrLBQY5Moq6zbSi-89">
          <mxGeometry relative="1" as="geometry">
            <mxPoint x="414" y="145" as="sourcePoint" />
            <mxPoint x="414" y="520" as="targetPoint" />
          </mxGeometry>
        </mxCell>
        <mxCell id="sJ-FfOrLBQY5Moq6zbSi-89" value="" style="rounded=0;whiteSpace=wrap;html=1;" vertex="1" parent="1">
          <mxGeometry x="411.5" y="190" width="5" height="35" as="geometry" />
        </mxCell>
        <mxCell id="sJ-FfOrLBQY5Moq6zbSi-91" value="" style="rounded=0;whiteSpace=wrap;html=1;" vertex="1" parent="1">
          <mxGeometry x="116.5" y="260" width="5" height="30" as="geometry" />
        </mxCell>
        <mxCell id="sJ-FfOrLBQY5Moq6zbSi-94" value="" style="dashed=1;endArrow=none;" edge="1" parent="1" source="v5nKrvoWjzES0tAVzeUP-3" target="sJ-FfOrLBQY5Moq6zbSi-93">
          <mxGeometry relative="1" as="geometry">
            <mxPoint x="414" y="265" as="sourcePoint" />
            <mxPoint x="414" y="520" as="targetPoint" />
          </mxGeometry>
        </mxCell>
        <mxCell id="sJ-FfOrLBQY5Moq6zbSi-93" value="" style="rounded=0;whiteSpace=wrap;html=1;" vertex="1" parent="1">
          <mxGeometry x="411.5" y="340" width="6" height="35" as="geometry" />
        </mxCell>
        <mxCell id="sJ-FfOrLBQY5Moq6zbSi-96" value="" style="dashed=1;endArrow=none;" edge="1" parent="1" source="sJ-FfOrLBQY5Moq6zbSi-87" target="sJ-FfOrLBQY5Moq6zbSi-95">
          <mxGeometry relative="1" as="geometry">
            <mxPoint x="714" y="225" as="sourcePoint" />
            <mxPoint x="714" y="520" as="targetPoint" />
          </mxGeometry>
        </mxCell>
        <mxCell id="sJ-FfOrLBQY5Moq6zbSi-95" value="" style="rounded=0;whiteSpace=wrap;html=1;" vertex="1" parent="1">
          <mxGeometry x="709.75" y="410" width="6.5" height="40" as="geometry" />
        </mxCell>
        <mxCell id="sJ-FfOrLBQY5Moq6zbSi-98" value="" style="dashed=1;endArrow=none;exitX=0.5;exitY=1;exitDx=0;exitDy=0;" edge="1" parent="1" source="v5nKrvoWjzES0tAVzeUP-1" target="sJ-FfOrLBQY5Moq6zbSi-97">
          <mxGeometry relative="1" as="geometry">
            <mxPoint x="413.28787878787875" y="415" as="sourcePoint" />
            <mxPoint x="413" y="560" as="targetPoint" />
          </mxGeometry>
        </mxCell>
        <mxCell id="sJ-FfOrLBQY5Moq6zbSi-97" value="" style="rounded=0;whiteSpace=wrap;html=1;" vertex="1" parent="1">
          <mxGeometry x="410" y="455" width="5" height="50" as="geometry" />
        </mxCell>
        <mxCell id="sJ-FfOrLBQY5Moq6zbSi-100" value="" style="dashed=1;endArrow=none;" edge="1" parent="1" source="sJ-FfOrLBQY5Moq6zbSi-91" target="sJ-FfOrLBQY5Moq6zbSi-99">
          <mxGeometry relative="1" as="geometry">
            <mxPoint x="119" y="300" as="sourcePoint" />
            <mxPoint x="119" y="520" as="targetPoint" />
          </mxGeometry>
        </mxCell>
        <mxCell id="sJ-FfOrLBQY5Moq6zbSi-99" value="" style="rounded=0;whiteSpace=wrap;html=1;" vertex="1" parent="1">
          <mxGeometry x="115.5" y="485" width="5" height="40" as="geometry" />
        </mxCell>
        <mxCell id="v5nKrvoWjzES0tAVzeUP-1" value="" style="rounded=0;whiteSpace=wrap;html=1;" vertex="1" parent="1">
          <mxGeometry x="410" y="340" width="6" height="35" as="geometry" />
        </mxCell>
        <mxCell id="v5nKrvoWjzES0tAVzeUP-4" value="" style="dashed=1;endArrow=none;" edge="1" parent="1" source="sJ-FfOrLBQY5Moq6zbSi-89" target="v5nKrvoWjzES0tAVzeUP-3">
          <mxGeometry relative="1" as="geometry">
            <mxPoint x="414" y="225" as="sourcePoint" />
            <mxPoint x="414" y="340" as="targetPoint" />
          </mxGeometry>
        </mxCell>
        <mxCell id="v5nKrvoWjzES0tAVzeUP-3" value="" style="rounded=0;whiteSpace=wrap;html=1;" vertex="1" parent="1">
          <mxGeometry x="411" y="290" width="6" height="35" as="geometry" />
        </mxCell>
        <mxCell id="v5nKrvoWjzES0tAVzeUP-5" value="7. Pulsa botón &quot;Confirmar&quot;" style="endArrow=block;html=1;" edge="1" parent="1">
          <mxGeometry x="0.0237" y="10" relative="1" as="geometry">
            <mxPoint x="116.5" y="380" as="sourcePoint" />
            <mxPoint x="411.5" y="380" as="targetPoint" />
            <mxPoint as="offset" />
          </mxGeometry>
        </mxCell>
        <mxCell id="v5nKrvoWjzES0tAVzeUP-6" value="" style="rounded=0;whiteSpace=wrap;html=1;" vertex="1" parent="1">
          <mxGeometry x="409" y="380" width="6" height="35" as="geometry" />
        </mxCell>
        <mxCell id="v5nKrvoWjzES0tAVzeUP-7" value="" style="rounded=0;whiteSpace=wrap;html=1;" vertex="1" parent="1">
          <mxGeometry x="407.5" y="380" width="6" height="35" as="geometry" />
        </mxCell>
      </root>
    </mxGraphModel>
  </diagram>
</mxfile>
